<svg width="62" height="65" viewBox="0 0 62 65" fill="none" xmlns="http://www.w3.org/2000/svg">
<g filter="url(#filter0_d_615_13859)">
<g filter="url(#filter1_d_615_13859)">
<circle cx="31" cy="30" r="27" fill="#FABB5A"/>
</g>
<path d="M41.3504 21.6001H37.3004V19.3501C37.3004 18.3555 36.9448 17.4017 36.3119 16.6984C35.6789 15.9952 34.8205 15.6001 33.9254 15.6001H29.8754C28.9803 15.6001 28.1218 15.9952 27.4889 16.6984C26.856 17.4017 26.5004 18.3555 26.5004 19.3501V21.6001H22.4504C21.3763 21.6001 20.3461 22.0742 19.5866 22.9181C18.8271 23.762 18.4004 24.9066 18.4004 26.1001V38.1001C18.4004 39.2936 18.8271 40.4382 19.5866 41.2821C20.3461 42.126 21.3763 42.6001 22.4504 42.6001H41.3504C42.4245 42.6001 43.4547 42.126 44.2142 41.2821C44.9737 40.4382 45.4004 39.2936 45.4004 38.1001V26.1001C45.4004 24.9066 44.9737 23.762 44.2142 22.9181C43.4547 22.0742 42.4245 21.6001 41.3504 21.6001ZM29.2004 19.3501C29.2004 19.1512 29.2715 18.9604 29.3981 18.8198C29.5247 18.6791 29.6964 18.6001 29.8754 18.6001H33.9254C34.1044 18.6001 34.2761 18.6791 34.4027 18.8198C34.5293 18.9604 34.6004 19.1512 34.6004 19.3501V21.6001H29.2004V19.3501ZM42.7004 38.1001C42.7004 38.4979 42.5582 38.8795 42.305 39.1608C42.0518 39.4421 41.7084 39.6001 41.3504 39.6001H22.4504C22.0923 39.6001 21.749 39.4421 21.4958 39.1608C21.2426 38.8795 21.1004 38.4979 21.1004 38.1001V26.1001C21.1004 25.7023 21.2426 25.3207 21.4958 25.0394C21.749 24.7581 22.0923 24.6001 22.4504 24.6001H41.3504C41.7084 24.6001 42.0518 24.7581 42.305 25.0394C42.5582 25.3207 42.7004 25.7023 42.7004 26.1001V38.1001Z" fill="white"/>
<path d="M31.9008 26.8501C30.9663 26.8501 30.0527 27.158 29.2757 27.7349C28.4987 28.3118 27.8931 29.1317 27.5355 30.091C27.1778 31.0503 27.0843 32.1059 27.2666 33.1243C27.4489 34.1427 27.8989 35.0782 28.5597 35.8124C29.2205 36.5466 30.0624 37.0466 30.979 37.2492C31.8955 37.4518 32.8456 37.3478 33.709 36.9505C34.5723 36.5531 35.3103 35.8802 35.8295 35.0168C36.3487 34.1535 36.6258 33.1385 36.6258 32.1001C36.6258 30.7077 36.128 29.3724 35.2419 28.3878C34.3558 27.4032 33.1539 26.8501 31.9008 26.8501V26.8501ZM31.9008 34.3501C31.5003 34.3501 31.1088 34.2181 30.7758 33.9709C30.4427 33.7237 30.1832 33.3723 30.0299 32.9611C29.8767 32.55 29.8366 32.0976 29.9147 31.6611C29.9928 31.2247 30.1857 30.8238 30.4689 30.5091C30.7521 30.1944 31.1129 29.9801 31.5057 29.8933C31.8985 29.8065 32.3057 29.8511 32.6757 30.0214C33.0457 30.1917 33.362 30.4801 33.5845 30.8501C33.807 31.2201 33.9258 31.6551 33.9258 32.1001C33.9258 32.6968 33.7124 33.2691 33.3327 33.6911C32.9529 34.113 32.4378 34.3501 31.9008 34.3501V34.3501Z" fill="white"/>
</g>
<defs>
<filter id="filter0_d_615_13859" x="0" y="3" width="62" height="62" filterUnits="userSpaceOnUse" color-interpolation-filters="sRGB">
<feFlood flood-opacity="0" result="BackgroundImageFix"/>
<feColorMatrix in="SourceAlpha" type="matrix" values="0 0 0 0 0 0 0 0 0 0 0 0 0 0 0 0 0 0 127 0" result="hardAlpha"/>
<feOffset dy="4"/>
<feGaussianBlur stdDeviation="2"/>
<feComposite in2="hardAlpha" operator="out"/>
<feColorMatrix type="matrix" values="0 0 0 0 0 0 0 0 0 0 0 0 0 0 0 0 0 0 0.25 0"/>
<feBlend mode="normal" in2="BackgroundImageFix" result="effect1_dropShadow_615_13859"/>
<feBlend mode="normal" in="SourceGraphic" in2="effect1_dropShadow_615_13859" result="shape"/>
</filter>
<filter id="filter1_d_615_13859" x="0" y="0" width="62" height="62" filterUnits="userSpaceOnUse" color-interpolation-filters="sRGB">
<feFlood flood-opacity="0" result="BackgroundImageFix"/>
<feColorMatrix in="SourceAlpha" type="matrix" values="0 0 0 0 0 0 0 0 0 0 0 0 0 0 0 0 0 0 127 0" result="hardAlpha"/>
<feOffset dy="1"/>
<feGaussianBlur stdDeviation="2"/>
<feComposite in2="hardAlpha" operator="out"/>
<feColorMatrix type="matrix" values="0 0 0 0 0 0 0 0 0 0 0 0 0 0 0 0 0 0 0.25 0"/>
<feBlend mode="normal" in2="BackgroundImageFix" result="effect1_dropShadow_615_13859"/>
<feBlend mode="normal" in="SourceGraphic" in2="effect1_dropShadow_615_13859" result="shape"/>
</filter>
</defs>
</svg>
