<svg width="26" height="33" viewBox="0 0 26 33" fill="none" xmlns="http://www.w3.org/2000/svg">
<g opacity="0.3">
<path opacity="0.3" d="M21.3374 7.52431C20.5022 7.5235 19.7014 7.19132 19.1108 6.6007C18.5202 6.01008 18.1881 5.20927 18.1873 4.37401V0H4.11104C3.02072 0 1.97507 0.43316 1.2041 1.20417C0.43313 1.97518 0 3.02087 0 4.11124V28.8948C0.00161911 29.9842 0.435459 31.0283 1.20625 31.798C1.97705 32.5677 3.02178 33 4.11104 33H21.009C22.0982 33 23.143 32.5677 23.9137 31.798C24.6845 31.0283 25.1184 29.9842 25.12 28.8948V7.52431H21.3374Z" fill="#F6554D"/>
</g>
<path d="M25.5108 8.52431H21.7282C20.893 8.5235 20.0923 8.19132 19.5017 7.6007C18.9111 7.01008 18.5789 6.20927 18.5781 5.37401V1L25.5108 8.52431Z" fill="#F6554D"/>
<path d="M20.3449 24.0423H4.57289C4.42095 24.0423 4.27523 23.9819 4.16779 23.8744C4.06035 23.767 4 23.6213 4 23.4693C4.0004 23.3177 4.06094 23.1723 4.16833 23.0652C4.27573 22.9581 4.42121 22.8979 4.57289 22.8979H20.3449C20.4964 22.8979 20.6417 22.9581 20.7489 23.0653C20.856 23.1724 20.9162 23.3178 20.9162 23.4693C20.9164 23.5445 20.9018 23.619 20.8732 23.6885C20.8446 23.758 20.8025 23.8211 20.7494 23.8743C20.6964 23.9276 20.6333 23.9698 20.5639 23.9986C20.4945 24.0274 20.42 24.0423 20.3449 24.0423Z" fill="#F6554D"/>
<path d="M20.3449 17.5969H4.57289C4.42121 17.5969 4.27573 17.5368 4.16833 17.4297C4.06094 17.3225 4.0004 17.1772 4 17.0256C4 16.8736 4.06035 16.7279 4.16779 16.6204C4.27523 16.513 4.42095 16.4526 4.57289 16.4526H20.3449C20.42 16.4526 20.4945 16.4675 20.5639 16.4963C20.6333 16.5251 20.6964 16.5673 20.7494 16.6205C20.8025 16.6737 20.8446 16.7369 20.8732 16.8064C20.9018 16.8759 20.9164 16.9504 20.9162 17.0256C20.9162 17.1771 20.856 17.3224 20.7489 17.4296C20.6417 17.5367 20.4964 17.5969 20.3449 17.5969Z" fill="#F6554D"/>
<path d="M20.3449 20.8196H4.57289C4.42095 20.8196 4.27523 20.7592 4.16779 20.6518C4.06035 20.5443 4 20.3986 4 20.2467C4.0004 20.095 4.06094 19.9497 4.16833 19.8425C4.27573 19.7354 4.42121 19.6753 4.57289 19.6753H20.3449C20.4964 19.6753 20.6417 19.7355 20.7489 19.8427C20.856 19.9498 20.9162 20.0951 20.9162 20.2467C20.9164 20.3218 20.9018 20.3963 20.8732 20.4658C20.8446 20.5353 20.8025 20.5985 20.7494 20.6517C20.6964 20.7049 20.6333 20.7471 20.5639 20.776C20.4945 20.8048 20.42 20.8196 20.3449 20.8196Z" fill="#F6554D"/>
<path d="M14.1241 14.3582H4.57289C4.42121 14.3582 4.27573 14.298 4.16833 14.1909C4.06094 14.0838 4.0004 13.9385 4 13.7868C4 13.6348 4.06035 13.4891 4.16779 13.3817C4.27523 13.2742 4.42095 13.2139 4.57289 13.2139H14.1241C14.2758 13.2143 14.4211 13.2748 14.5282 13.3822C14.6353 13.4896 14.6954 13.6351 14.6954 13.7868C14.695 13.9382 14.6347 14.0833 14.5277 14.1904C14.4206 14.2974 14.2755 14.3578 14.1241 14.3582Z" fill="#F6554D"/>
<path d="M14.1241 11.1433H4.57289C4.42121 11.1433 4.27573 11.0832 4.16833 10.976C4.06094 10.8689 4.0004 10.7236 4 10.5719C4 10.42 4.06035 10.2742 4.16779 10.1668C4.27523 10.0594 4.42095 9.99902 4.57289 9.99902H14.1241C14.2758 9.99943 14.4211 10.06 14.5282 10.1674C14.6353 10.2748 14.6954 10.4203 14.6954 10.5719C14.695 10.7234 14.6347 10.8684 14.5277 10.9755C14.4206 11.0826 14.2755 11.1429 14.1241 11.1433Z" fill="#F6554D"/>
<path d="M19.5534 10H16.8525C16.3817 10 16 10.3817 16 10.8525V13.5536C16 14.0244 16.3817 14.4061 16.8525 14.4061H19.5534C20.0242 14.4061 20.4059 14.0244 20.4059 13.5536V10.8525C20.4059 10.3817 20.0242 10 19.5534 10Z" fill="#F6554D"/>
<g opacity="0.3">
<path opacity="0.3" d="M21.3374 7.52431C20.5022 7.5235 19.7014 7.19132 19.1108 6.6007C18.5202 6.01008 18.1881 5.20927 18.1873 4.37401V0H4.11104C3.02072 0 1.97507 0.43316 1.2041 1.20417C0.43313 1.97518 0 3.02087 0 4.11124V28.8948C0.00161911 29.9842 0.435459 31.0283 1.20625 31.798C1.97705 32.5677 3.02178 33 4.11104 33H21.009C22.0982 33 23.143 32.5677 23.9137 31.798C24.6845 31.0283 25.1184 29.9842 25.12 28.8948V7.52431H21.3374Z" fill="#F6554D"/>
</g>
<path d="M25.5108 8.52431H21.7282C20.893 8.5235 20.0923 8.19132 19.5017 7.6007C18.9111 7.01008 18.5789 6.20927 18.5781 5.37401V1L25.5108 8.52431Z" fill="#F6554D"/>
<path d="M20.3449 24.0423H4.57289C4.42095 24.0423 4.27523 23.9819 4.16779 23.8744C4.06035 23.767 4 23.6213 4 23.4693C4.0004 23.3177 4.06094 23.1723 4.16833 23.0652C4.27573 22.9581 4.42121 22.8979 4.57289 22.8979H20.3449C20.4964 22.8979 20.6417 22.9581 20.7489 23.0653C20.856 23.1724 20.9162 23.3178 20.9162 23.4693C20.9164 23.5445 20.9018 23.619 20.8732 23.6885C20.8446 23.758 20.8025 23.8211 20.7494 23.8743C20.6964 23.9276 20.6333 23.9698 20.5639 23.9986C20.4945 24.0274 20.42 24.0423 20.3449 24.0423Z" fill="#F6554D"/>
<path d="M20.3449 17.5969H4.57289C4.42121 17.5969 4.27573 17.5368 4.16833 17.4297C4.06094 17.3225 4.0004 17.1772 4 17.0256C4 16.8736 4.06035 16.7279 4.16779 16.6204C4.27523 16.513 4.42095 16.4526 4.57289 16.4526H20.3449C20.42 16.4526 20.4945 16.4675 20.5639 16.4963C20.6333 16.5251 20.6964 16.5673 20.7494 16.6205C20.8025 16.6737 20.8446 16.7369 20.8732 16.8064C20.9018 16.8759 20.9164 16.9504 20.9162 17.0256C20.9162 17.1771 20.856 17.3224 20.7489 17.4296C20.6417 17.5367 20.4964 17.5969 20.3449 17.5969Z" fill="#F6554D"/>
<path d="M20.3449 20.8196H4.57289C4.42095 20.8196 4.27523 20.7592 4.16779 20.6518C4.06035 20.5443 4 20.3986 4 20.2467C4.0004 20.095 4.06094 19.9497 4.16833 19.8425C4.27573 19.7354 4.42121 19.6753 4.57289 19.6753H20.3449C20.4964 19.6753 20.6417 19.7355 20.7489 19.8427C20.856 19.9498 20.9162 20.0951 20.9162 20.2467C20.9164 20.3218 20.9018 20.3963 20.8732 20.4658C20.8446 20.5353 20.8025 20.5985 20.7494 20.6517C20.6964 20.7049 20.6333 20.7471 20.5639 20.776C20.4945 20.8048 20.42 20.8196 20.3449 20.8196Z" fill="#F6554D"/>
<path d="M14.1241 14.3582H4.57289C4.42121 14.3582 4.27573 14.298 4.16833 14.1909C4.06094 14.0838 4.0004 13.9385 4 13.7868C4 13.6348 4.06035 13.4891 4.16779 13.3817C4.27523 13.2742 4.42095 13.2139 4.57289 13.2139H14.1241C14.2758 13.2143 14.4211 13.2748 14.5282 13.3822C14.6353 13.4896 14.6954 13.6351 14.6954 13.7868C14.695 13.9382 14.6347 14.0833 14.5277 14.1904C14.4206 14.2974 14.2755 14.3578 14.1241 14.3582Z" fill="#F6554D"/>
<path d="M14.1241 11.1433H4.57289C4.42121 11.1433 4.27573 11.0832 4.16833 10.976C4.06094 10.8689 4.0004 10.7236 4 10.5719C4 10.42 4.06035 10.2742 4.16779 10.1668C4.27523 10.0594 4.42095 9.99902 4.57289 9.99902H14.1241C14.2758 9.99943 14.4211 10.06 14.5282 10.1674C14.6353 10.2748 14.6954 10.4203 14.6954 10.5719C14.695 10.7234 14.6347 10.8684 14.5277 10.9755C14.4206 11.0826 14.2755 11.1429 14.1241 11.1433Z" fill="#F6554D"/>
<path d="M19.5534 10H16.8525C16.3817 10 16 10.3817 16 10.8525V13.5536C16 14.0244 16.3817 14.4061 16.8525 14.4061H19.5534C20.0242 14.4061 20.4059 14.0244 20.4059 13.5536V10.8525C20.4059 10.3817 20.0242 10 19.5534 10Z" fill="#F6554D"/>
</svg>
