<svg width="26" height="33" viewBox="0 0 26 33" fill="none" xmlns="http://www.w3.org/2000/svg">
<g opacity="0.3">
<path opacity="0.3" d="M21.3345 7.52291C20.4994 7.5221 19.6988 7.18998 19.1082 6.59948C18.5177 6.00897 18.1856 5.2083 18.1848 4.3732V2.83891e-07H4.11202C3.5721 -0.000200357 3.03741 0.105954 2.53853 0.312436C2.03964 0.518917 1.58632 0.821673 1.20447 1.20339C0.822612 1.5851 0.519699 2.0383 0.313032 2.53711C0.106365 3.03592 -3.72801e-08 3.57055 0 4.11048V28.8895C-3.72801e-08 29.4294 0.106365 29.9641 0.313032 30.4629C0.519699 30.9617 0.822612 31.4149 1.20447 31.7966C1.58632 32.1783 2.03964 32.481 2.53853 32.6875C3.03741 32.894 3.5721 33.0002 4.11202 33H21.0061C22.0963 33 23.1418 32.5669 23.9127 31.7961C24.6835 31.0252 25.1166 29.9797 25.1166 28.8895V7.52291H21.3345Z" fill="#142F64"/>
</g>
<path d="M25.1193 7.52291H21.3372C20.5021 7.5221 19.7014 7.18998 19.1109 6.59948C18.5204 6.00897 18.1883 5.2083 18.1875 4.3732V0L25.1193 7.52291Z" fill="#142F64"/>
<path d="M19.9505 12.7847H4.18066C4.02914 12.7847 3.88384 12.7245 3.77671 12.6174C3.66957 12.5102 3.60938 12.3649 3.60938 12.2134C3.60918 12.1383 3.62381 12.0638 3.65243 11.9943C3.68105 11.9249 3.7231 11.8617 3.77617 11.8085C3.82924 11.7553 3.89227 11.7131 3.96168 11.6843C4.03109 11.6555 4.10551 11.6406 4.18066 11.6406H19.9505C20.1024 11.6406 20.2481 11.701 20.3555 11.8084C20.463 11.9158 20.5233 12.0615 20.5233 12.2134C20.5229 12.3651 20.4624 12.5104 20.355 12.6175C20.2476 12.7246 20.1022 12.7847 19.9505 12.7847Z" fill="#142F64"/>
<path d="M19.9505 16.2066H4.18066C4.02914 16.2066 3.88384 16.1464 3.77671 16.0393C3.66957 15.9321 3.60938 15.7868 3.60938 15.6353C3.60918 15.5602 3.62381 15.4857 3.65243 15.4162C3.68105 15.3467 3.7231 15.2836 3.77617 15.2304C3.82924 15.1771 3.89227 15.1349 3.96168 15.1061C4.03109 15.0773 4.10551 15.0625 4.18066 15.0625H19.9505C20.1024 15.0625 20.2481 15.1228 20.3555 15.2302C20.463 15.3377 20.5233 15.4834 20.5233 15.6353C20.5229 15.787 20.4624 15.9322 20.355 16.0393C20.2476 16.1464 20.1022 16.2066 19.9505 16.2066Z" fill="#142F64"/>
<path d="M19.9505 19.6207H4.18066C4.10551 19.6207 4.03109 19.6058 3.96168 19.577C3.89227 19.5482 3.82924 19.506 3.77617 19.4528C3.7231 19.3996 3.68105 19.3364 3.65243 19.2669C3.62381 19.1974 3.60918 19.123 3.60938 19.0478C3.60938 18.8963 3.66957 18.751 3.77671 18.6439C3.88384 18.5368 4.02914 18.4766 4.18066 18.4766H19.9505C20.1022 18.4766 20.2476 18.5367 20.355 18.6438C20.4624 18.7509 20.5229 18.8962 20.5233 19.0478C20.5233 19.1998 20.463 19.3455 20.3555 19.4529C20.2481 19.5603 20.1024 19.6207 19.9505 19.6207Z" fill="#142F64"/>
<path d="M13.7275 23.0425H4.18066C4.10551 23.0425 4.03109 23.0277 3.96168 22.9989C3.89227 22.9701 3.82924 22.9278 3.77617 22.8746C3.7231 22.8214 3.68105 22.7583 3.65243 22.6888C3.62381 22.6193 3.60918 22.5449 3.60938 22.4697C3.60938 22.3182 3.66957 22.1729 3.77671 22.0657C3.88384 21.9586 4.02914 21.8984 4.18066 21.8984H13.7275C13.879 21.8984 14.0243 21.9586 14.1314 22.0657C14.2386 22.1729 14.2988 22.3182 14.2988 22.4697C14.299 22.5449 14.2843 22.6193 14.2557 22.6888C14.2271 22.7583 14.1851 22.8214 14.132 22.8746C14.0789 22.9278 14.0159 22.9701 13.9465 22.9989C13.8771 23.0277 13.8027 23.0425 13.7275 23.0425Z" fill="#142F64"/>
</svg>
