<svg width="26" height="33" viewBox="0 0 26 33" fill="none" xmlns="http://www.w3.org/2000/svg">
<g opacity="0.3">
<path opacity="0.3" d="M21.3373 7.52278C20.5021 7.52197 19.7013 7.18981 19.1107 6.59919C18.5202 6.00857 18.188 5.20776 18.1872 4.3725V0H4.11102C3.02097 -7.52682e-08 1.97555 0.432941 1.20463 1.20362C0.433703 1.9743 0.000405072 3.01962 0 4.10973V28.8933C0.00121463 29.9829 0.434873 31.0274 1.20571 31.7975C1.97654 32.5675 3.0215 33 4.11102 33H21.0073C21.5473 33.0002 22.0821 32.894 22.581 32.6875C23.08 32.481 23.5334 32.1782 23.9153 31.7964C24.2972 31.4146 24.6001 30.9613 24.8068 30.4624C25.0135 29.9635 25.1199 29.4288 25.1199 28.8888V7.52278H21.3373Z" fill="#F6554D"/>
</g>
<path d="M25.1202 7.52278H21.3376C20.5024 7.52197 19.7016 7.18981 19.111 6.59919C18.5204 6.00857 18.1883 5.20776 18.1875 4.3725V0L25.1202 7.52278Z" fill="#F6554D"/>
<path d="M18.2466 20.1512V12.8622C18.2462 12.8268 18.2427 12.7915 18.2359 12.7567C18.2343 12.7464 18.2317 12.7361 18.2283 12.7262C18.2228 12.7023 18.2156 12.6788 18.2069 12.6559C18.2029 12.6454 18.1984 12.6353 18.1932 12.6254C18.1838 12.6031 18.1726 12.5816 18.1596 12.5612L18.1443 12.5367C18.125 12.5091 18.1036 12.483 18.0801 12.4588L18.0694 12.4497C18.0486 12.4301 18.0267 12.4117 18.0037 12.3947L17.9762 12.3779L17.9151 12.3442L17.883 12.3305C17.8591 12.3213 17.8346 12.3136 17.8097 12.3076H17.7852C17.7506 12.3002 17.7153 12.2967 17.6798 12.2969H7.38931C7.24788 12.3098 7.11635 12.3751 7.02055 12.48C6.92475 12.5848 6.87157 12.7217 6.8714 12.8637C6.8714 12.8729 6.8714 12.8805 6.8714 12.8897V20.1772C6.86771 20.271 6.8975 20.363 6.95543 20.4369C7.00555 20.5215 7.07683 20.5917 7.16228 20.6405C7.24773 20.6892 7.34438 20.7149 7.44276 20.7149H17.6783C17.828 20.7142 17.9714 20.6547 18.0777 20.5492C18.184 20.4438 18.2446 20.3009 18.2466 20.1512ZM7.48554 13.6688V12.5627H8.38533V13.6688H7.48554ZM9.00406 13.6688V12.5627H9.90389V13.6688H9.00406ZM10.5226 13.6688V12.5627H11.4224V13.6688H10.5226ZM12.0411 13.6688V12.5627H12.9409V13.6688H12.0411ZM13.5597 13.6688V12.5627H14.4595V13.6688H13.5597ZM15.0782 13.6688V12.5627H15.978V13.6688H15.0782ZM16.5967 13.6688V12.5627H17.4965V13.6688H16.5967ZM7.27775 19.0329V13.9683H17.854V19.0329H7.27775ZM7.48401 20.4369V19.3308H8.3838V20.4369H7.48401ZM9.00253 20.4369V19.3308H9.90236V20.4369H9.00253ZM10.5211 20.4369V19.3308H11.4209V20.4369H10.5211ZM12.0396 20.4369V19.3308H12.9394V20.4369H12.0396ZM13.5581 20.4369V19.3308H14.4579V20.4369H13.5581ZM15.0766 20.4369V19.3308H15.9765V20.4369H15.0766ZM16.5952 20.4369V19.3308H17.495V20.4369H16.5952Z" fill="#F6554D"/>
<path d="M13.7817 16.127L12.3197 15.2822C12.2441 15.2388 12.1584 15.2161 12.0713 15.2163C11.9841 15.2165 11.8985 15.2395 11.8231 15.2831C11.7476 15.3267 11.6849 15.3894 11.6412 15.4648C11.5976 15.5403 11.5745 15.6258 11.5742 15.713V17.4027C11.5745 17.4899 11.5976 17.5754 11.6412 17.6509C11.6849 17.7263 11.7476 17.789 11.8231 17.8326C11.8985 17.8762 11.9841 17.8992 12.0713 17.8994C12.1584 17.8996 12.2441 17.8769 12.3197 17.8335L13.7817 16.9887C13.8572 16.9449 13.9199 16.8821 13.9634 16.8065C14.007 16.7308 14.0299 16.6451 14.0299 16.5579C14.0299 16.4706 14.007 16.3849 13.9634 16.3093C13.9199 16.2336 13.8572 16.1708 13.7817 16.127Z" fill="#F6554D"/>
</svg>
